erDiagram
    OFERTAS {
        ID int PK "Not Null"
        ANO int "Not Null"
        SEMESTRE int "Not Null"
        ID_MATERIA int FK "References MATERIA(ID), Not Null"
        ID_PROFESSOR int FK "References PROFESSOR(ID_PROFESSOR), Not Null"
    }

    ALUNOS {
        MATRICULA int PK "Not Null"
        CPF String "Not Null"
        NOME String "Not Null"
        DATA_NASC Date "Not Null"
        TELEFONE String "Not Null"
        EMAIL String "Not Null"
        PERIODO int "Not Null"
        ID_CURSO int FK "References CURSO(ID), Not Null"
        STATUS_CURSO String "Not Null"
    }

    PROFESSORES {
        ID int PK "Not Null"
        CPF String "Not Null"
        NOME String "Not Null"
        DATA_NASC Date "Not Null"
        TELEFONE String "Not Null"
        EMAIL String "Not Null"
        STATUS String "Not Null"
    }


    GRADES_ALUNOS {
        ID_ALUNO int PK, FK "References ALUNO(MATRICULA), Not Null"
        ID_OFERTA int PK, FK "References OFERTA(ID), Not Null"
        STATUS String "Not Null"
        MEDIA_FINAL float "Not Null"
    }

    CURSOS {
        ID int PK "Not Null"
        NOME String "Not Null"
        CARGA_HORARIA_TOTAL int "Not Null"
    }

    MATERIAS {
        ID int PK "Not Null"
        ID_CURSO int PK, FK "References CURSO(ID), Not Null"
        PERIODO int "Not Null"
        NOME String "Not Null"
        CARGA_HORARIA int "Not Null"
        MEDIA_APROVACAO float "Not Null"
    }

    CURSOS ||--o{ MATERIAS : "possui"
    CURSOS ||--o{ ALUNOS : "tem"

    OFERTAS ||--o{ GRADES_ALUNOS : "inclui"
    ALUNOS ||--o{ GRADES_ALUNOS : "matricula-se em"
    
    MATERIAS ||--o{ OFERTAS : "é ofertada em"
    PROFESSORES ||--o{ OFERTAS : "leciona"